<svg width="26" height="24" viewBox="0 0 26 24" fill="none" xmlns="http://www.w3.org/2000/svg">
<path d="M13.0164 23.2743C12.4623 23.2743 11.8486 23.0474 11.1656 22.448C10.4611 21.8247 9.74472 21.2134 9.03069 20.602C7.03904 18.8993 4.98054 17.1369 3.15367 15.1477C0.722626 12.5017 -0.16812 9.76978 0.436059 6.80142C1.04024 3.82351 2.81696 1.82709 5.57516 1.02709C8.23308 0.255745 10.7095 1.02709 12.7393 3.25754C12.8396 3.36739 12.9352 3.47724 13.0426 3.60142C16.7561 -0.329328 20.1376 0.489776 22.3202 1.87007C25.2289 3.70888 26.4946 7.74231 25.2647 11.2551C24.3286 13.9274 22.3752 15.8593 20.6176 17.4617C19.6838 18.3143 18.7071 19.1405 17.7638 19.9381C16.8587 20.7047 15.9202 21.4975 15.0343 22.3023C14.4874 22.799 13.8164 23.2743 13.0164 23.2743ZM7.55725 2.53157C7.07964 2.53157 6.58531 2.6056 6.07666 2.75366C3.97278 3.36261 2.66651 4.8456 2.19845 7.15963C1.71128 9.55724 2.43725 11.7089 4.47904 13.9322C6.23427 15.8402 8.24979 17.5668 10.2008 19.236C10.922 19.8546 11.6456 20.4707 12.3573 21.1011C12.9304 21.6074 13.0928 21.6432 13.8283 20.9746C14.7381 20.1483 15.6886 19.3459 16.6056 18.5674C17.537 17.7793 18.4993 16.965 19.4092 16.134C21.0784 14.6128 22.774 12.9363 23.5716 10.6605C24.534 7.91903 23.5835 4.79306 21.3626 3.39127C18.9841 1.88918 16.6892 2.36201 14.3489 4.83843C14.3179 4.87425 14.251 5.01993 14.1961 5.13694C14.134 5.27067 14.0647 5.42112 13.9787 5.58589L13.3602 6.75127L12.0086 5.16798C11.765 4.87903 11.5907 4.67366 11.4092 4.47306C10.2319 3.17873 8.96143 2.53634 7.55725 2.53634V2.53157Z" fill="white"/>
</svg>
